<svg width="13" height="18" viewBox="0 0 13 18" fill="none" xmlns="http://www.w3.org/2000/svg">
<path d="M13.0001 3.36044V16.5571C13.0001 16.8699 12.736 17.125 12.4123 17.125H1.57609C1.25237 17.125 0.988281 16.8699 0.988281 16.5571V1.44287C0.988281 1.13013 1.25237 0.875 1.57609 0.875H10.4231L13.0001 3.36044Z" fill="white"/>
<path d="M12.9998 3.36044V16.5571C12.9998 16.8699 12.7357 17.125 12.4119 17.125H11.5728C11.8965 17.125 12.1606 16.8699 12.1606 16.5571V3.36044L9.58789 0.875H10.427L12.9998 3.36044Z" fill="#E5E5E5"/>
<path d="M12.9999 3.36044H11.0107C10.6869 3.36044 10.4229 3.10531 10.4229 2.79257V0.875L12.9999 3.36044Z" fill="#CECECE"/>
<path d="M10.5168 8.56997H3.53972C3.30545 8.56997 3.11377 8.3848 3.11377 8.15848C3.11377 7.93215 3.30545 7.74698 3.53972 7.74698H10.5168C10.7511 7.74698 10.9427 7.93215 10.9427 8.15848C10.9427 8.38891 10.7553 8.56997 10.5168 8.56997Z" fill="#CECECE"/>
<path d="M10.5168 10.681H3.53972C3.30545 10.681 3.11377 10.4958 3.11377 10.2695C3.11377 10.0432 3.30545 9.858 3.53972 9.858H10.5168C10.7511 9.858 10.9427 10.0432 10.9427 10.2695C10.9427 10.4999 10.7553 10.681 10.5168 10.681Z" fill="#CECECE"/>
<path d="M10.5168 12.7919H3.53972C3.30545 12.7919 3.11377 12.6068 3.11377 12.3804C3.11377 12.1541 3.30545 11.9689 3.53972 11.9689H10.5168C10.7511 11.9689 10.9427 12.1541 10.9427 12.3804C10.9427 12.6109 10.7553 12.7919 10.5168 12.7919Z" fill="#CECECE"/>
<path d="M5.89941 6.43022H0V4.12172C0 3.94889 0.144821 3.80487 0.32798 3.80487H5.89941C6.07831 3.80487 6.22739 3.94478 6.22739 4.12172V6.11337C6.22739 6.28619 6.08257 6.43022 5.89941 6.43022Z" fill="#F55B4B"/>
<path d="M6.22739 6.07222V6.11337C6.22739 6.28619 6.08257 6.43022 5.89941 6.43022H0V4.12172C0 3.94889 0.144821 3.80487 0.32798 3.80487H0.494101V4.62786C0.494101 5.42617 1.16284 6.07633 1.99345 6.07633H6.22739V6.07222Z" fill="#DD4E43"/>
<path d="M0 6.43021L0.988203 7.51656V6.43021H0Z" fill="#DB1B1B"/>
<path d="M1.59776 5.61542V5.89112H0.70752V5.61542H0.924753V4.53318H0.70752V4.25748H1.59776C1.80647 4.25748 1.96407 4.30274 2.07908 4.39739C2.19409 4.49203 2.24946 4.61959 2.24946 4.77596C2.24946 4.86649 2.22816 4.94879 2.18983 5.02286C2.15149 5.09693 2.10038 5.15454 2.03648 5.19157C1.97259 5.23272 1.90444 5.25741 1.82351 5.27387C1.74258 5.29033 1.64461 5.29445 1.52534 5.29445H1.36348V5.6113H1.59776V5.61542ZM1.36348 5.02286H1.42738C1.57646 5.02286 1.67443 4.99817 1.71702 4.95291C1.75962 4.90764 1.78091 4.84592 1.78091 4.77596C1.78091 4.71835 1.76388 4.66486 1.73406 4.62371C1.70424 4.58256 1.67017 4.55787 1.63183 4.54552C1.5935 4.53729 1.5296 4.52906 1.44015 4.52906H1.35922V5.02286H1.36348Z" fill="white"/>
<path d="M2.35156 5.89112V5.61542H2.60713V4.53318H2.35156V4.25748H3.15235C3.32273 4.25748 3.45477 4.26571 3.56126 4.28628C3.66349 4.30686 3.76146 4.35212 3.85517 4.41796C3.94888 4.48791 4.02555 4.57844 4.08092 4.69366C4.1363 4.80888 4.16611 4.93645 4.16611 5.07635C4.16611 5.19157 4.14481 5.29856 4.10648 5.40144C4.06814 5.50431 4.01703 5.58661 3.9574 5.65245C3.89776 5.71417 3.82961 5.76767 3.74442 5.8047C3.66349 5.84174 3.58682 5.86643 3.51867 5.87877C3.45052 5.89112 3.34403 5.89523 3.1992 5.89523H2.35156V5.89112ZM3.05012 5.61542H3.15661C3.28439 5.61542 3.38662 5.59896 3.46329 5.56604C3.53997 5.53312 3.5996 5.47551 3.64219 5.39732C3.68905 5.31502 3.71034 5.21215 3.71034 5.08047C3.71034 4.95702 3.68905 4.85003 3.64219 4.76362C3.59534 4.6772 3.53571 4.61548 3.45477 4.58256C3.3781 4.54964 3.27588 4.53318 3.15661 4.53318H3.05012V5.61542Z" fill="white"/>
<path d="M4.36182 5.89112V5.61542H4.60461V4.53318H4.36182V4.25748H5.8782V4.76362H5.55448V4.53729H5.0476V4.91587H5.41391V5.19157H5.0476V5.61542H5.30743V5.89112H4.36182Z" fill="white"/>
<path d="M5.25169 7.19559H0.992188V6.43021H5.92043V6.55366C5.91617 6.90754 5.61801 7.19559 5.25169 7.19559Z" fill="#E5E5E5"/>
</svg>
